PathFileType	4	(X/Y/Z)	0_coords_data.trc
DataRate	CameraRate	NumFrames	NumMarkers	Units	OrigDataRate	OrigDataStartFrame	OrigNumFrames
30.0	30.0	9	21	m	30.0	56	65
Frame#	Time	THUMB_TIP	THUMB_IP	THUMB_MCP	THUMB_CMC	INDEX_TIP	INDEX_DIP	INDEX_PIP	INDEX_MCP	MIDDLE_TIP	MIDDLE_DIP	MIDDLE_PIP	MIDDLE_MCP	RING_TIP	RING_DIP	RING_PIP	RING_MCP	PINKY_TIP	PINKY_DIP	PINKY_PIP	PINKY_MCP	WRIST
X1	Y1	Z1	X2	Y2	Z2	X3	Y3	Z3	X4	Y4	Z4	X5	Y5	Z5	X6	Y6	Z6	X7	Y7	Z7	X8	Y8	Z8	X9	Y9	Z9	X10	Y10	Z10	X11	Y11	Z11	X12	Y12	Z12	X13	Y13	Z13	X14	Y14	Z14	X15	Y15	Z15	X16	Y16	Z16	X17	Y17	Z17	X18	Y18	Z18	X19	Y19	Z19	X20	Y20	Z20	X21	Y21	Z21
54	1.8333333333333253	0.4976441111565634	0.006795903021936778	-0.16307160702032067	0.4971625396070187	-0.0028276992391218503	-0.1422112530357015	0.47761027816826684	-0.010801887521803333	-0.1193433411532615	0.47629901600620594	-0.024550121240614287	-0.07692687429008091	0.5807925990036311	0.03828181396789321	-0.15139931101489718	0.5653508782532748	0.03542870616400429	-0.1423763937412321	0.5441166392607583	0.03069524197178719	-0.1297783286457626	0.5093877069746463	0.02005497555351199	-0.10754497337007853	0.604184537757698	0.03939293312782699	-0.12379253458917255	0.5879399608181597	0.03423826517800721	-0.11766529064246048	0.5616004995947169	0.028220711752714123	-0.10673682399647104	0.5219496585613695	0.01904569626019259	-0.08830376084733046	0.6090500256165085	0.03212151603767688	-0.09442737708769364	0.5923258847644011	0.028343843724787043	-0.08885671243656801	0.5688797571629026	0.024531924978797304	-0.08137818618013054	0.5319219200487738	0.011071656608128921	-0.072015479027009	0.6046355305200197	0.009754927575066574	-0.06166069845842337	0.5880115087348562	0.009591450840613525	-0.057584526842347716	0.5673519986211151	0.00909247539127156	-0.0538767398526219	0.5327649070498786	-0.0010875493337763054	-0.05486852825763816	0.4622830810018609	-0.023011742144276925	-0.051989820119430985
55	1.8666666666666587	0.4973318585212937	0.007074300273888334	-0.16307895456120525	0.49693517379112406	-0.002634731858080608	-0.1422564346300047	0.47745596639124477	-0.010634798338783447	-0.11933527812827421	0.47626072708089773	-0.024494629983435323	-0.07695171445350862	0.5806961948197793	0.038879301461755555	-0.1512965179834868	0.5652748062642046	0.03581454740011347	-0.1423083002758635	0.5440705369230483	0.030848370484565457	-0.1297494037657722	0.5093615771144574	0.020083991021122127	-0.10754462189851174	0.6041668858007939	0.03988008219064554	-0.12356310661815889	0.5879369749540613	0.034609128918699494	-0.11749622558157424	0.5616090145102818	0.028369493754731967	-0.10666502057514163	0.5219683674449972	0.019027620420281832	-0.08829394483503783	0.609061386742843	0.03244307337313834	-0.09413261181163726	0.5923406411853802	0.028547162895792955	-0.08863365285969885	0.5688906561196025	0.024603512128291816	-0.08123596416397849	0.531929633672873	0.01106701834642676	-0.07199653832760283	0.604714483983671	0.009775261925956902	-0.06111247530461708	0.5880550884613391	0.009545765718370625	-0.05718667954818635	0.5673713067830117	0.009002189360187707	-0.053623293626606255	0.5327622492114321	-0.0010768426390174168	-0.054851991704282316	0.4622830810018608	-0.023011742144276925	-0.051989820119430985
57	1.9000000000000012	0.4972273169894479	0.0071755866636359356	-0.16307885053797674	0.49684594733941834	-0.00255047308886025	-0.14226399241016546	0.47739169015665384	-0.01056821521545559	-0.11932782689240129	0.47625808535213554	-0.02446568529240789	-0.07695489608029685	0.5806934288550477	0.039082118569398805	-0.15117961379389122	0.5652665386076511	0.03596568849816395	-0.14221864727761155	0.5440577703553201	0.03094593443485283	-0.1296886811418716	0.509333660809471	0.020129546561695744	-0.10753291296233666	0.6041786398308786	0.04007183730176955	-0.12339188083467233	0.5879429412862228	0.03479243975426016	-0.11734787104791548	0.5616090892467874	0.02849576102038809	-0.10656410437353238	0.521954869249568	0.01907265408164127	-0.08826394554818129	0.6090829706070159	0.03253748880894569	-0.09392302568854502	0.592353839095579	0.028628820857534487	-0.0884587349094351	0.568893950811762	0.024683771514261044	-0.081093260967457	0.5319235010243794	0.01110036865767594	-0.07196101899988167	0.6047621880852246	0.009613380443904695	-0.060668304087422464	0.5880855731036421	0.009415160639008935	-0.05681457580626362	0.5673858704807555	0.008919882185146166	-0.05333764762506635	0.5327517294630812	-0.001038564722055657	-0.05481719558451073	0.4622830810018609	-0.023011742144276925	-0.051989820119430985
58	1.9333333333333345	0.4972888530969738	0.007203174747231533	-0.16306124831230337	0.4968361113561518	-0.002512117384277479	-0.14224279198827308	0.47736447941387616	-0.010534002775083429	-0.11932282461741223	0.4762649004026437	-0.024441992242869692	-0.07695244870496601	0.5807180150437914	0.0391506910279632	-0.15104831018519374	0.5652742100200943	0.036052510644681734	-0.14211018036387896	0.5440466796261033	0.031052993108157678	-0.1296039175018494	0.5092945626537488	0.02020417198680413	-0.10750800067957936	0.6041861090444162	0.04017404621458953	-0.12325286002537003	0.5879371651090094	0.03493152170348013	-0.11721235030065119	0.561592503330681	0.02864297059762788	-0.10645026542946681	0.5219217311808535	0.019159914927915134	-0.08821707006492355	0.6090886496066013	0.032575585201093604	-0.09376653647112698	0.5923495420183122	0.02869526449342552	-0.08831260317915016	0.5688800079809226	0.02479680249702454	-0.0809530552901537	0.5319025813083521	0.011173121675750686	-0.07190949008860134	0.604780027172124	0.009435761255909947	-0.06033129875803531	0.58809642394864	0.009301000275296789	-0.05650517500684024	0.567387003796568	0.008882244196507183	-0.05307638814973911	0.5327329470792177	-0.0009723540309650724	-0.054769520692032725	0.462283081001861	-0.023011742144276925	-0.051989820119430985
59	1.966666666666668	0.4974536648855622	0.0071915872191684604	-0.16302865639227643	0.49688264648468505	-0.0024970704106291874	-0.1422006979873241	0.4773680849235703	-0.010520094190239138	-0.1193176698549007	0.47628018277988804	-0.024422063709125474	-0.07694501697097411	0.5807702313875578	0.03911068311165222	-0.1508991264624669	0.5653002410194037	0.036083130141036146	-0.14198210223802193	0.5440426231213834	0.031157719670006356	-0.12949755795344192	0.5092492230019173	0.020302075894725657	-0.10747006603195998	0.6041906863045796	0.04021103255763092	-0.12313371763623741	0.5879240624510355	0.03503298526378851	-0.11708518272023993	0.5615655577365637	0.028795903840550086	-0.10632704187076848	0.5218745013101895	0.01927928834286985	-0.088155580998629	0.6090799751744023	0.03258551200441673	-0.09365126712354682	0.5923312975094261	0.02875506823346352	-0.08819145971006609	0.5688535759526401	0.024929075184611404	-0.08082000485419433	0.5318702365235904	0.01127784278142907	-0.07184240536713674	0.6047725009628263	0.009281542640899976	-0.06009234439921038	0.5880897515509288	0.009223360869613506	-0.05626057105761992	0.5673756982993293	0.008890930253116713	-0.052850364791847126	0.5327076509887602	-0.0008842057172606665	-0.05470957522447334	0.4622830810018609	-0.023011742144276925	-0.051989820119430985
60	2.000000000000001	0.49765838542153074	0.007175567171868846	-0.16298376642138662	0.4969625020005609	-0.0024827909253676284	-0.14214553556725776	0.4773963001920787	-0.010514483766060567	-0.11930969406967962	0.4763029355105757	-0.02440441282994177	-0.0769332333364661	0.5808498242558026	0.038987792876631455	-0.15072831194076153	0.565346827091611	0.03606561983273593	-0.1418334829020111	0.5440509507131892	0.031248251574731878	-0.12937200444471098	0.509202583170164	0.02041748274167876	-0.10741928661590461	0.6041935660936703	0.0402074204215942	-0.12302197830400272	0.5879078641355643	0.03510349960016146	-0.11696178820960067	0.5615345239602673	0.028939406578300853	-0.10619793967778283	0.5218187188427824	0.019420709588841123	-0.08808172725650615	0.6090585534687976	0.03259563178582903	-0.0935653099819306	0.5923027003192283	0.028816971949518377	-0.08809145256037429	0.5688193867270288	0.02506708014807779	-0.08069873498103283	0.5318298135029828	0.011407102563226634	-0.07176020495175436	0.6047442260395978	0.009190032339688625	-0.059942444556859015	0.588067768252233	0.009202343845801542	-0.05608296219609399	0.5673529875186456	0.008947647681021076	-0.052670483914398075	0.5326775896786661	-0.0007801096581167011	-0.05463796270462723	0.4622830810018609	-0.023011742144276925	-0.051989820119430985
61	2.033333333333334	0.4978391963197445	0.0071903736811606	-0.16293005721486173	0.49705269803321017	-0.0024467306674177403	-0.1420852103643835	0.4774429360393916	-0.010505172664620255	-0.11929620540314154	0.4763321548372408	-0.024387552435045312	-0.07691772387028528	0.5809566245643981	0.03880809900722104	-0.15053224057687786	0.565416213594384	0.03600810274780797	-0.14166343863803987	0.54407698688364	0.0313126693573218	-0.12922960810746797	0.5091595966543531	0.020544643661495887	-0.10735584354373263	0.6041961991798811	0.040188322740545734	-0.12290517917377969	0.5878928759631875	0.03514986468258563	-0.11683759378169857	0.5615056484488595	0.029058400413844443	-0.10606643612944305	0.5217599497690814	0.019574184313995602	-0.08799776151209374	0.6090263752191185	0.032634585412991024	-0.09349679983551931	0.592267551195094	0.028889855949792653	-0.08800873837638462	0.568782140395163	0.025197308490559345	-0.08059385120126247	0.5317846727250458	0.011553487245254068	-0.0716633214395519	0.6047001150183301	0.009200674927336228	-0.05987265941922695	0.5880327184028216	0.00925806365469628	-0.05597463471493086	0.5673197653586607	0.009054084594272593	-0.0525476845061742	0.5326445282890618	-0.0006660459931192575	-0.05455528170959076	0.4622830810018608	-0.023011742144276925	-0.051989820119430985
62	2.0666666666666673	0.4979322533295827	0.007271541601245546	-0.1628715712315601	0.49713034122304034	-0.0023663456485648604	-0.14202767365137317	0.4775018006639681	-0.010480138962946417	-0.1192745034640707	0.4763668307540577	-0.02436999501735304	-0.07689911270373126	0.5810909013990577	0.038598091673953894	-0.15030765856105532	0.5655108349194186	0.03591871213034703	-0.14147123090326702	0.5441260037203094	0.03133896442049078	-0.1290726528194838	0.5091252395272438	0.020677840449861318	-0.10727992385810103	0.6042003980659861	0.04017920496699923	-0.12277096503223832	0.5878835590441142	0.03517899374026012	-0.11670807364097069	0.5614851436553545	0.029137874853864543	-0.10593597553693637	0.5217038144038746	0.01972979304737954	-0.08790595166818249	0.6089856911893752	0.03273104939626381	-0.0934339232423812	0.5922297848506818	0.028982582613543584	-0.08793950793702085	0.5687464718443657	0.025306215477999383	-0.08050995115804135	0.5317382106843042	0.011709603935945667	-0.07155218388694198	0.604645004173387	0.009352855683146699	-0.05987402146387555	0.5879865664141302	0.009410635995938166	-0.05593789229216101	0.5672765558181372	0.009211812553232113	-0.05249290327149761	0.5326102609338392	-0.0005479832550296937	-0.05446212539607817	0.462283081001861	-0.023011742144276925	-0.051989820119430985
62	2.1	0.4978743704854648	0.0074541101358266415	-0.1628118407568669	0.49717255140658756	-0.002219178554861312	-0.14198073574807935	0.47756668530210056	-0.010427332073890794	-0.11924186528138775	0.4764059473708405	-0.024350253275580824	-0.07687802512652853	0.5812534354366403	0.03838439195964194	-0.15005177454477778	0.5656333124501567	0.03580542451049362	-0.1412562822456875	0.5442031828340734	0.031314996804325035	-0.1289033296976711	0.509104520150365	0.02081138265945015	-0.10719171847899725	0.6042080796684111	0.040205436189882926	-0.1226071093199133	0.5878844289722118	0.03519781166044289	-0.11656872174369516	0.5614791660511005	0.029162861109715	-0.10580995732033963	0.5216560072930961	0.019877679516784652	-0.08780858653028342	0.6089384272428124	0.032913201779364076	-0.09336485562795527	0.592193164200123	0.029103714837458106	-0.0878799695880643	0.5687168991463887	0.025380168586906504	-0.08045163454938858	0.531693875917591	0.011868080663908653	-0.07142721961205933	0.6045827298664268	0.009685554507764094	-0.05993740732072067	0.5879304436799503	0.00968016623012169	-0.05597491621913442	0.5672232375537889	0.009422156923919789	-0.052517017341698724	0.5325766182961279	-0.0004318791601944927	-0.05435908082259622	0.4622830810018609	-0.023011742144276925	-0.051989820119430985
